<svg width="107" height="19" viewBox="0 0 107 19" fill="none" xmlns="http://www.w3.org/2000/svg">
<g clip-path="url(#clip0_66_3587)">
<path d="M8.41573 19C6.18374 19 4.04317 18.0538 2.46491 16.3695C0.886655 14.6852 0 12.4008 0 10.0189H16.8315C16.8315 12.4008 15.9448 14.6852 14.3666 16.3695C12.7883 18.0538 10.6477 19 8.41573 19V19Z" fill="#5E00F5"/>
<path d="M15.9102 8.97949C15.8818 6.87802 15.0797 4.87286 13.6772 3.39747C12.2746 1.92208 10.3843 1.09499 8.41496 1.09499C6.44557 1.09499 4.5553 1.92208 3.15275 3.39747C1.75021 4.87286 0.948071 6.87802 0.919744 8.97949H0C0 6.59756 0.886655 4.31318 2.46491 2.6289C4.04317 0.944614 6.18374 -0.00160599 8.41573 -0.00160599C10.6477 -0.00160599 12.7883 0.944614 14.3666 2.6289C15.9448 4.31318 16.8315 6.59756 16.8315 8.97949H15.9102Z" fill="#FF7966"/>
<path d="M8.41573 2.24781C10.0883 2.24956 11.692 2.9593 12.8748 4.22131C14.0577 5.48332 14.7232 7.19452 14.7252 8.97949H13.8039C13.7799 7.47113 13.2016 6.03321 12.1936 4.97557C11.1856 3.91793 9.82857 3.32525 8.41496 3.32525C7.00135 3.32525 5.64432 3.91793 4.63631 4.97557C3.62829 6.03321 3.04999 7.47113 3.02601 8.97949H2.10626C2.10832 7.19452 2.77377 5.48332 3.95662 4.22131C5.13948 2.9593 6.74313 2.24956 8.41573 2.24781Z" fill="#FFD2CC"/>
</g>
<path d="M28.0611 15.4224V5.60803H24.7587V3.57747H33.5003V5.60803H30.1979V15.4224H28.0611Z" fill="white"/>
<path d="M34.9668 15.4224V3.57747H39.888C40.6003 3.57747 41.2208 3.7072 41.7497 3.96666C42.2785 4.22612 42.6886 4.59275 42.98 5.06655C43.2714 5.54034 43.417 6.09874 43.417 6.74175V6.94481C43.417 7.6555 43.2552 8.23082 42.9314 8.67077C42.6076 9.11073 42.2083 9.43223 41.7335 9.63529V9.93987C42.1652 9.96243 42.4997 10.1204 42.7371 10.4137C42.9746 10.6957 43.0933 11.0736 43.0933 11.5474V15.4224H40.9564V11.8689C40.9564 11.5982 40.8863 11.3782 40.746 11.209C40.6165 11.0398 40.3952 10.9551 40.0823 10.9551H37.1036V15.4224H34.9668ZM37.1036 8.92459H39.6614C40.1686 8.92459 40.5625 8.78358 40.8431 8.50156C41.1345 8.20826 41.2802 7.82471 41.2802 7.35092V7.1817C41.2802 6.70791 41.1399 6.33 40.8593 6.04798C40.5787 5.75468 40.1794 5.60803 39.6614 5.60803H37.1036V8.92459Z" fill="white"/>
<path d="M44.4293 15.4224L47.4079 3.57747H51.1313L54.1099 15.4224H51.9083L51.2931 12.8165H47.2461L46.6309 15.4224H44.4293ZM47.7479 10.7521H50.7913L49.4153 4.98194H49.1239L47.7479 10.7521Z" fill="white"/>
<path d="M59.6888 15.6593C58.2858 15.6593 57.1742 15.2531 56.354 14.4409C55.5338 13.6174 55.1237 12.4442 55.1237 10.9213V8.07853C55.1237 6.55562 55.5338 5.38805 56.354 4.57583C57.1742 3.75233 58.2858 3.34058 59.6888 3.34058C61.081 3.34058 62.1548 3.74105 62.9102 4.54199C63.6765 5.33165 64.0596 6.42025 64.0596 7.80779V7.90932H61.9551V7.7401C61.9551 7.04069 61.7663 6.46537 61.3885 6.01414C61.0216 5.5629 60.455 5.33729 59.6888 5.33729C58.9333 5.33729 58.3398 5.57982 57.9081 6.0649C57.4764 6.54998 57.2605 7.20991 57.2605 8.04469V10.9551C57.2605 11.7786 57.4764 12.4386 57.9081 12.9349C58.3398 13.42 58.9333 13.6625 59.6888 13.6625C60.455 13.6625 61.0216 13.4369 61.3885 12.9857C61.7663 12.5232 61.9551 11.9479 61.9551 11.2597V10.9551H64.0596V11.192C64.0596 12.5796 63.6765 13.6738 62.9102 14.4748C62.1548 15.2644 61.081 15.6593 59.6888 15.6593Z" fill="white"/>
<path d="M65.812 15.4224V3.57747H67.9488V8.28159H68.2402L71.915 3.57747H74.6508L69.9238 9.41531L74.8127 15.4224H71.9959L68.2402 10.6167H67.9488V15.4224H65.812Z" fill="white"/>
<path d="M75.9567 15.4224V3.57747H78.0936V15.4224H75.9567Z" fill="white"/>
<path d="M79.9126 15.4224V12.5796L85.5137 5.84492V5.57418H80.0745V3.57747H87.7477V6.42025L82.1466 13.1549V13.4257H87.7801V15.4224H79.9126Z" fill="white"/>
<path d="M89.5748 15.4224V3.57747H96.8596V5.60803H91.7117V8.43388H96.4063V10.4644H91.7117V13.3918H96.9567V15.4224H89.5748Z" fill="white"/>
<path d="M98.5497 15.4224V3.57747H103.471C104.183 3.57747 104.804 3.7072 105.333 3.96666C105.861 4.22612 106.272 4.59275 106.563 5.06655C106.854 5.54034 107 6.09874 107 6.74175V6.94481C107 7.6555 106.838 8.23082 106.514 8.67077C106.191 9.11073 105.791 9.43223 105.316 9.63529V9.93987C105.748 9.96243 106.083 10.1204 106.32 10.4137C106.558 10.6957 106.676 11.0736 106.676 11.5474V15.4224H104.539V11.8689C104.539 11.5982 104.469 11.3782 104.329 11.209C104.199 11.0398 103.978 10.9551 103.665 10.9551H100.687V15.4224H98.5497ZM100.687 8.92459H103.244C103.752 8.92459 104.145 8.78358 104.426 8.50156C104.717 8.20826 104.863 7.82471 104.863 7.35092V7.1817C104.863 6.70791 104.723 6.33 104.442 6.04798C104.162 5.75468 103.762 5.60803 103.244 5.60803H100.687V8.92459Z" fill="white"/>
<defs>
<clipPath id="clip0_66_3587">
<rect width="16.8315" height="19" fill="white" transform="matrix(1 0 0 -1 0 19)"/>
</clipPath>
</defs>
</svg>
