<svg width="16" height="16" viewBox="0 0 16 16" fill="none" xmlns="http://www.w3.org/2000/svg">
<path d="M15.163 7.9085C15.163 7.68344 15.1093 7.47224 15.0194 7.28029C14.4194 5.34467 11.6104 5.48606 7.61473 5.39165C6.94671 5.37599 7.32882 4.58715 7.56328 2.85556C7.71585 1.72935 6.98966 0 5.76904 0C3.75646 0 5.69253 1.58752 3.91306 5.51335C2.96225 7.61095 0.836914 6.43597 0.836914 8.54297V13.3391C0.836914 14.1592 0.917453 14.9476 2.07095 15.0774C3.18911 15.2031 2.93764 16 4.55066 16H12.6243C13.4467 16 14.1156 15.3306 14.1156 14.5082C14.1156 14.1673 13.9961 13.8568 13.8033 13.6053C14.2597 13.3498 14.5729 12.8675 14.5729 12.3082C14.5729 11.9681 14.4539 11.6576 14.2615 11.4066C14.7192 11.1515 15.0333 10.6688 15.0333 10.1086C15.0333 9.70184 14.8686 9.33315 14.6033 9.06334C14.942 8.78996 15.163 8.37652 15.163 7.9085Z" fill="#FFDB5E"/>
</svg>
